<svg xmlns="http://www.w3.org/2000/svg" width="800" height="600" viewBox="0 0 800 600">
  <defs>
    <linearGradient id="sky" x1="0" y1="0" x2="0" y2="1">
      <stop offset="0" stop-color="#a8bfd0"/><stop offset="1" stop-color="#d6e0e6"/>
    </linearGradient>
  </defs>
  <rect width="800" height="380" fill="url(#sky)"/>
  <rect y="380" width="800" height="220" fill="#8a7a5e"/>
  <polygon points="0,380 800,380 800,420 0,440" fill="#7d6f55"/>
  <path d="M0 600 L310 380 L490 380 L800 600 Z" fill="#a08a63"/>
  <path d="M60 600 L340 395 L460 395 L740 600 Z" fill="#b39a6f"/>
  <ellipse cx="150" cy="360" rx="90" ry="26" fill="#5d6e4e"/>
  <ellipse cx="660" cy="352" rx="110" ry="30" fill="#556647"/>
  <rect x="110" y="330" width="8" height="34" fill="#4a3f2e"/>
  <rect x="640" y="320" width="9" height="36" fill="#4a3f2e"/>
  <g transform="translate(500,430)">
    <rect x="0" y="18" width="120" height="34" rx="4" fill="#c9a227"/>
    <rect x="14" y="-8" width="52" height="30" rx="3" fill="#b8931f"/>
    <rect x="20" y="-2" width="24" height="16" fill="#dfe6ea"/>
    <circle cx="26" cy="60" r="16" fill="#2d2d2d"/><circle cx="92" cy="60" r="16" fill="#2d2d2d"/>
    <rect x="118" y="10" width="60" height="12" fill="#b8931f" transform="rotate(18 118 10)"/>
    <path d="M172 32 l26 10 -6 18 -26 -12 Z" fill="#8b8b8b"/>
  </g>
  <g transform="translate(120,470)">
    <rect x="-6" y="-30" width="60" height="42" fill="#6b5a3e"/>
    <path d="M-14 -30 h76 l-10 -18 h-56 Z" fill="#5a4a32"/>
  </g>
  <rect x="0" y="548" width="800" height="52" fill="#111827" opacity="0.82"/>
  <text x="16" y="580" font-family="monospace" font-size="20" fill="#e5e7eb">R47 km 0+200 — site cleared, camp established · demo asset</text>
</svg>
