<svg xmlns="http://www.w3.org/2000/svg" width="800" height="600" viewBox="0 0 800 600">
  <defs>
    <linearGradient id="sky3c" x1="0" y1="0" x2="0" y2="1">
      <stop offset="0" stop-color="#8ea9bd"/><stop offset="1" stop-color="#d5dde0"/>
    </linearGradient>
  </defs>
  <rect width="800" height="340" fill="url(#sky3c)"/>
  <rect y="340" width="800" height="260" fill="#8b795d"/>
  <path d="M0 600 L320 340 L480 340 L800 600 Z" fill="#c6b28c"/>
  <path d="M40 600 L345 358 L455 358 L760 600 Z" fill="#d4c29f"/>
  <g transform="translate(310,300)">
    <rect x="0" y="0" width="14" height="120" fill="#7a6a4d"/>
    <rect x="-70" y="0" width="154" height="46" rx="4" fill="#e8e3d8"/>
    <text x="7" y="30" font-family="monospace" font-size="17" fill="#1f2937" text-anchor="middle">R47 · km 12</text>
  </g>
  <g transform="translate(560,440)">
    <rect x="0" y="16" width="130" height="40" rx="5" fill="#d8a413"/>
    <rect x="10" y="-14" width="44" height="34" rx="4" fill="#c19412"/>
    <circle cx="30" cy="62" r="17" fill="#2b2b2b"/><circle cx="102" cy="62" r="17" fill="#2b2b2b"/>
    <circle cx="66" cy="62" r="17" fill="#2b2b2b"/>
  </g>
  <g fill="#a89679">
    <circle cx="240" cy="500" r="5"/><circle cx="300" cy="540" r="6"/><circle cx="430" cy="480" r="4"/>
    <circle cx="500" cy="530" r="5"/><circle cx="180" cy="460" r="4"/>
  </g>
  <ellipse cx="120" cy="330" rx="95" ry="26" fill="#5d6e4e"/>
  <rect x="0" y="548" width="800" height="52" fill="#111827" opacity="0.82"/>
  <text x="16" y="580" font-family="monospace" font-size="20" fill="#e5e7eb">R47 km 12+000 — surfaced section with km marker visible · demo asset</text>
</svg>
